HIERARCHY
ROOT Hips
{
  OFFSET 46.2228 86.6044 9.61172
  CHANNELS 6 Xposition Yposition Zposition Zrotation Xrotation Yrotation
  JOINT spine
  {
    OFFSET 0 6.84637 0.3937
    CHANNELS 3 Zrotation Xrotation Yrotation
    JOINT spine1
    {
      OFFSET 0 9.49621 0
      CHANNELS 3 Zrotation Xrotation Yrotation
      JOINT spine2
      {
        OFFSET 0 9.09909 0
        CHANNELS 3 Zrotation Xrotation Yrotation
        JOINT Neck
        {
          OFFSET 0 23.3612 1.11378
          CHANNELS 3 Zrotation Xrotation Yrotation
          JOINT Head
          {
            OFFSET 0 7.05802 0
            CHANNELS 3 Zrotation Xrotation Yrotation
            End Site
            {
              OFFSET 0 17.0844 -5.63419
            }
          }
        }
        JOINT RightShoulder
        {
          OFFSET -3.83136 9.82631 -0.533491
          CHANNELS 3 Zrotation Xrotation Yrotation
          JOINT RightArm
          {
            OFFSET 0 12.8881 0
            CHANNELS 3 Zrotation Xrotation Yrotation
            JOINT RightArmRoll
            {
              OFFSET 0 6.50617 0
              CHANNELS 3 Zrotation Xrotation Yrotation
              JOINT RightForeArm
              {
                OFFSET 0 18.9501 0
                CHANNELS 3 Zrotation Xrotation Yrotation
                JOINT RightForeArmRoll
                {
                  OFFSET 0 7.30092 0
                  CHANNELS 3 Zrotation Xrotation Yrotation
                  JOINT RightHand
                  {
                    OFFSET 0 14.6514 0
                    CHANNELS 3 Zrotation Xrotation Yrotation
                    End Site
                    {
                      OFFSET 0 0 0
                    }
                  }
                }
              }
            }
          }
        }
        JOINT LeftShoulder
        {
          OFFSET 3.83136 9.82631 -0.533491
          CHANNELS 3 Zrotation Xrotation Yrotation
          JOINT LeftArm
          {
            OFFSET 0 12.8881 0
            CHANNELS 3 Zrotation Xrotation Yrotation
            JOINT LeftArmRoll
            {
              OFFSET 0 6.50617 0
              CHANNELS 3 Zrotation Xrotation Yrotation
              JOINT LeftForeArm
              {
                OFFSET 0 18.9501 0
                CHANNELS 3 Zrotation Xrotation Yrotation
                JOINT LeftForeArmRoll
                {
                  OFFSET 0 7.30092 0
                  CHANNELS 3 Zrotation Xrotation Yrotation
                  JOINT LeftHand
                  {
                    OFFSET 0 14.6514 0
                    CHANNELS 3 Zrotation Xrotation Yrotation
                    End Site
                    {
                      OFFSET 0 0 0
                    }
                  }
                }
              }
            }
          }
        }
      }
    }
  }
  JOINT RightUpLeg
  {
    OFFSET -6.06837 -1.11278 -0.933477
    CHANNELS 3 Zrotation Xrotation Yrotation
    JOINT RightUpLegRoll
    {
      OFFSET 0 17.1796 0
      CHANNELS 3 Zrotation Xrotation Yrotation
      JOINT RightLeg
      {
        OFFSET 0 -21.2743 0
        CHANNELS 3 Zrotation Xrotation Yrotation
        JOINT RightLegRoll
        {
          OFFSET 0 21.3439 0
          CHANNELS 3 Zrotation Xrotation Yrotation
          JOINT RightFoot
          {
            OFFSET 0 17.7652 0
            CHANNELS 3 Zrotation Xrotation Yrotation
            JOINT RightToeBase
            {
              OFFSET 0 14.8508 0
              CHANNELS 3 Zrotation Xrotation Yrotation
              End Site
              {
                OFFSET 0.00629469 7.19214 -0.829005
              }
            }
          }
        }
      }
    }
  }
  JOINT LeftUpLeg
  {
    OFFSET 6.06837 -1.11278 -0.933477
    CHANNELS 3 Zrotation Xrotation Yrotation
    JOINT LeftUpLegRoll
    {
      OFFSET 0 17.1797 0
      CHANNELS 3 Zrotation Xrotation Yrotation
      JOINT LeftLeg
      {
        OFFSET 0 21.2742 0
        CHANNELS 3 Zrotation Xrotation Yrotation
        JOINT LeftLegRoll
        {
          OFFSET 0 21.5412 0
          CHANNELS 3 Zrotation Xrotation Yrotation
          JOINT LeftFoot
          {
            OFFSET 0 17.5679 0
            CHANNELS 3 Zrotation Xrotation Yrotation
            JOINT LeftToeBase
            {
              OFFSET 0 14.8508 0
              CHANNELS 3 Zrotation Xrotation Yrotation
              End Site
              {
                OFFSET -0.0282102 7.19214 -0.829005
              }
            }
          }
        }
      }
    }
  }
}
MOTION
Frames: 7
Frame Time: 0.00208333
48.087 86.8552 8.22214 1.84235 -0.833002 0.226313 1.17592 -3.32398 1.36309 2.39402 -2.61765 2.62738 2.36141 -0.974111 2.5866 -9.74213 28.5499 5.14929 5.08327 18.4313 0.651132 27.9291 -11.4249 -7.66821 47.5863 16.9055 53.3143 8.76395e-06 1.26081e-06 -4.0096e-06 1.82607 0.0134668 0.235041 5.49263e-06 -4.38091e-06 -3.05102 8.02919 -4.95145 0.697707 -42.7903 -9.85159 6.02671 -46.533 28.2906 -62.825 5.91376e-06 3.61382e-06 1.24688e-05 1.24085 1.12315 -2.56351 1.01926e-05 7.04906e-06 3.00153 -8.02891 -4.95144 -0.697675 178.062 14.6918 -1.77985 180 -1.52556e-05 178.829 176.953 23.5701 -179.949 3.0346e-06 -1.6124e-06 0.683769 -23.3575 71.2743 22.8785 8.13649 25.2327 -3.48773 -176.518 11.0566 -0.119143 4.54188e-06 -4.6773e-06 -0.738698 -1.17664 -19.1749 0.696965 2.2066e-06 -3.05657e-06 -0.122176 15.5884 70.5717 -21.5577 -8.13649 25.2326 3.48774 
48.0733 86.8504 8.22456 1.8447 -0.83718 0.232974 1.17504 -3.32342 1.36297 2.39394 -2.61632 2.6287 2.36133 -0.972781 2.58792 -9.7445 28.5519 5.14023 5.08758 18.4267 0.640604 27.9315 -11.4305 -7.67434 47.5832 16.9176 53.3139 8.76395e-06 1.26081e-06 -4.0096e-06 1.82796 0.0134636 0.234922 5.49263e-06 -4.38091e-06 -3.05103 8.02919 -4.95145 0.697707 -42.7847 -9.84944 6.02485 -46.5273 28.3039 -62.827 5.91376e-06 3.61382e-06 1.24688e-05 1.23928 1.11623 -2.56357 1.01926e-05 7.04906e-06 3.00153 -8.02891 -4.95144 -0.697675 178.06 14.7059 -1.7799 180 -1.52556e-05 178.829 176.953 23.5989 -179.948 3.0346e-06 -1.6124e-06 0.685209 -23.3703 71.2837 22.8914 8.13649 25.2327 -3.48773 -176.519 11.0695 -0.118866 4.54188e-06 -4.6773e-06 -0.738665 -1.17703 -19.2078 0.697948 2.2066e-06 -3.05657e-06 -0.122176 15.5996 70.5868 -21.5699 -8.13649 25.2326 3.48774 
48.0758 86.8491 8.22878 1.84709 -0.841324 0.239575 1.1741 -3.32288 1.36277 2.39387 -2.61505 2.62999 2.36126 -0.971508 2.58921 -9.74748 28.5546 5.13117 5.09235 18.4216 0.629752 27.9336 -11.4361 -7.68057 47.5801 16.9302 53.3136 8.76395e-06 1.26081e-06 -4.0096e-06 1.82985 0.0134604 0.234817 5.49263e-06 -4.3809e-06 -3.05104 8.02919 -4.95145 0.697707 -42.7796 -9.84728 6.02297 -46.5212 28.3171 -62.8286 5.91376e-06 3.61382e-06 1.24688e-05 1.23731 1.10917 -2.56359 1.01926e-05 7.04906e-06 3.00153 -8.02891 -4.95144 -0.697675 178.059 14.7216 -1.78012 180 -1.52556e-05 178.829 176.952 23.6297 -179.946 3.0346e-06 -1.6124e-06 0.686783 -23.384 71.2937 22.9051 8.13649 25.2327 -3.48773 -176.521 11.0838 -0.118651 4.54188e-06 -4.6773e-06 -0.738631 -1.17747 -19.2435 0.699015 2.2066e-06 -3.05657e-06 -0.122176 15.6119 70.6033 -21.5833 -8.13649 25.2326 3.48774 
48.0861 86.8545 8.2244 1.84949 -0.845417 0.246087 1.17314 -3.32237 1.36252 2.39384 -2.61384 2.63127 2.36123 -0.970297 2.59049 -9.75102 28.5579 5.12208 5.09761 18.416 0.618568 27.9354 -11.4418 -7.68682 47.577 16.9431 53.3134 8.76395e-06 1.26081e-06 -4.0096e-06 1.83175 0.0134571 0.234722 5.49263e-06 -4.3809e-06 -3.05105 8.02919 -4.95145 0.697707 -42.7748 -9.84511 6.0211 -46.5149 28.3301 -62.8296 5.91376e-06 3.61382e-06 1.24688e-05 1.23489 1.10227 -2.56356 1.01926e-05 7.04906e-06 3.00153 -8.02891 -4.95144 -0.697675 178.057 14.7383 -1.78041 180 -1.52556e-05 178.829 176.952 23.6619 -179.944 3.0346e-06 -1.6124e-06 0.688446 -23.3983 71.304 22.9194 8.13649 25.2327 -3.48773 -176.523 11.099 -0.118495 4.54188e-06 -4.6773e-06 -0.738597 -1.17795 -19.281 0.700137 2.2066e-06 -3.05657e-06 -0.122175 15.625 70.6207 -21.5975 -8.13649 25.2326 3.48774 
48.0828 86.8484 8.22371 1.85187 -0.849442 0.252482 1.17218 -3.32188 1.36226 2.39387 -2.61269 2.63255 2.36125 -0.969153 2.59177 -9.75505 28.5617 5.11292 5.10339 18.4098 0.607045 27.9369 -11.4474 -7.69303 47.5741 16.956 53.3132 8.76395e-06 1.26081e-06 -4.0096e-06 1.83368 0.0134539 0.234634 5.49263e-06 -4.38091e-06 -3.05106 8.02919 -4.95145 0.697707 -42.7702 -9.84293 6.01922 -46.5086 28.3431 -62.8298 5.91376e-06 3.61382e-06 1.24688e-05 1.23195 1.09588 -2.56348 1.01926e-05 7.04906e-06 3.00153 -8.02891 -4.95144 -0.697675 178.056 14.7554 -1.78069 180 -1.52556e-05 178.829 176.951 23.6946 -179.943 3.0346e-06 -1.6124e-06 0.690154 -23.4129 71.3144 22.9339 8.13649 25.2327 -3.48773 -176.525 11.1146 -0.118392 4.54188e-06 -4.6773e-06 -0.738563 -1.17844 -19.3193 0.70129 2.2066e-06 -3.05657e-06 -0.122175 15.6385 70.6386 -21.6121 -8.13649 25.2326 3.48774 
48.0853 86.8547 8.22547 1.85419 -0.853385 0.258734 1.17127 -3.32141 1.36201 2.39396 -2.61162 2.63386 2.36134 -0.96808 2.59308 -9.75952 28.5661 5.10367 5.10972 18.4031 0.595175 27.9383 -11.4529 -7.69911 47.5712 16.9688 53.3128 8.76395e-06 1.26081e-06 -4.0096e-06 1.83564 0.0134507 0.234551 5.49263e-06 -4.38091e-06 -3.05107 8.02919 -4.95145 0.697707 -42.7657 -9.84076 6.01734 -46.5025 28.3559 -62.8291 5.91376e-06 3.61382e-06 1.24688e-05 1.22844 1.09031 -2.56334 1.01926e-05 7.04906e-06 3.00153 -8.02891 -4.95144 -0.697675 178.055 14.7726 -1.7809 180 -1.52556e-05 178.829 176.951 23.7272 -179.941 3.0346e-06 -1.6124e-06 0.691863 -23.4275 71.3247 22.9483 8.13649 25.2327 -3.48773 -176.526 11.1302 -0.118337 4.54188e-06 -4.6773e-06 -0.738528 -1.17892 -19.3576 0.702446 2.2066e-06 -3.05657e-06 -0.122175 15.6519 70.6564 -21.6268 -8.13649 25.2326 3.48774 
48.0855 86.8533 8.22947 1.85642 -0.857227 0.264815 1.17043 -3.32097 1.36182 2.39414 -2.61062 2.63521 2.36152 -0.967084 2.59443 -9.76438 28.5709 5.09428 5.11663 18.3958 0.582951 27.9396 -11.4582 -7.70499 47.5684 16.9811 53.3124 8.76395e-06 1.26081e-06 -4.0096e-06 1.83766 0.0134475 0.234469 5.49263e-06 -4.38091e-06 -3.05109 8.02919 -4.95145 0.697707 -42.7612 -9.83859 6.01547 -46.4971 28.3687 -62.8272 5.91376e-06 3.61382e-06 1.24688e-05 1.22431 1.0859 -2.56311 1.01926e-05 7.04906e-06 3.00153 -8.02891 -4.95144 -0.697675 178.053 14.7893 -1.78095 180 -1.52556e-05 178.829 176.95 23.7588 -179.939 3.0346e-06 -1.6124e-06 0.693528 -23.4419 71.3348 22.9623 8.13649 25.2327 -3.48773 -176.528 11.1454 -0.118326 4.54188e-06 -4.6773e-06 -0.738492 -1.17938 -19.3947 0.70358 2.2066e-06 -3.05657e-06 -0.122175 15.665 70.6737 -21.641 -8.13649 25.2326 3.48774 
